<svg width="1440" height="720" xmlns="http://www.w3.org/2000/svg" xmlns:xlink="http://www.w3.org/1999/xlink" version="1.1" baseProfile="full" viewBox="0 0 1440 720">
<rect width="1440" height="720" x="0" y="0" fill="none"></rect>
<path d="M216 640.5L1296 640.5" fill="none" pointer-events="visible" stroke="#dbdee4" class="zr916-cls-12604"></path>
<path d="M216 538.5L1296 538.5" fill="none" pointer-events="visible" stroke="#dbdee4" class="zr916-cls-12604"></path>
<path d="M216 436.5L1296 436.5" fill="none" pointer-events="visible" stroke="#dbdee4" class="zr916-cls-12604"></path>
<path d="M216 335.5L1296 335.5" fill="none" pointer-events="visible" stroke="#dbdee4" class="zr916-cls-12604"></path>
<path d="M216 233.5L1296 233.5" fill="none" pointer-events="visible" stroke="#dbdee4" class="zr916-cls-12604"></path>
<path d="M216 131.5L1296 131.5" fill="none" pointer-events="visible" stroke="#dbdee4" class="zr916-cls-12604"></path>
<path d="M216 30.5L1296 30.5" fill="none" pointer-events="visible" stroke="#dbdee4" class="zr916-cls-12604"></path>
<path d="M216.5 30L216.5 640" fill="none" pointer-events="visible" stroke="#dbdee4" class="zr916-cls-12604"></path>
<path d="M370.5 30L370.5 640" fill="none" pointer-events="visible" stroke="#dbdee4" class="zr916-cls-12604"></path>
<path d="M524.5 30L524.5 640" fill="none" pointer-events="visible" stroke="#dbdee4" class="zr916-cls-12604"></path>
<path d="M679.5 30L679.5 640" fill="none" pointer-events="visible" stroke="#dbdee4" class="zr916-cls-12604"></path>
<path d="M833.5 30L833.5 640" fill="none" pointer-events="visible" stroke="#dbdee4" class="zr916-cls-12604"></path>
<path d="M987.5 30L987.5 640" fill="none" pointer-events="visible" stroke="#dbdee4" class="zr916-cls-12604"></path>
<path d="M1141.5 30L1141.5 640" fill="none" pointer-events="visible" stroke="#dbdee4" class="zr916-cls-12604"></path>
<path d="M1296.5 30L1296.5 640" fill="none" pointer-events="visible" stroke="#dbdee4" class="zr916-cls-12604"></path>
<text dominant-baseline="central" text-anchor="middle" style="font-size:12px;font-family:sans-serif;" xml:space="preserve" x="1" y="-21" transform="matrix(0,-1,1,0,194.1,335)" fill="#54555a">PC2 (15.7%)</text>
<path d="M679.5 640L679.5 30" fill="none" pointer-events="visible" stroke="#54555a" stroke-linecap="round" class="zr916-cls-12604"></path>
<text dominant-baseline="central" text-anchor="middle" style="font-size:12px;font-family:sans-serif;" xml:space="preserve" x="1" y="16" transform="translate(756 655)" fill="#54555a">PC1 (25.4%)</text>
<path d="M216 335.5L1296 335.5" fill="none" pointer-events="visible" stroke="#54555a" stroke-linecap="round" class="zr916-cls-12604"></path>
<path d="M678.9 640.5L673.9 640.5" fill="none" pointer-events="visible" stroke="#54555a" class="zr916-cls-12604"></path>
<path d="M678.9 538.5L673.9 538.5" fill="none" pointer-events="visible" stroke="#54555a" class="zr916-cls-12604"></path>
<path d="M678.9 436.5L673.9 436.5" fill="none" pointer-events="visible" stroke="#54555a" class="zr916-cls-12604"></path>
<path d="M678.9 335.5L673.9 335.5" fill="none" pointer-events="visible" stroke="#54555a" class="zr916-cls-12604"></path>
<path d="M678.9 233.5L673.9 233.5" fill="none" pointer-events="visible" stroke="#54555a" class="zr916-cls-12604"></path>
<path d="M678.9 131.5L673.9 131.5" fill="none" pointer-events="visible" stroke="#54555a" class="zr916-cls-12604"></path>
<path d="M678.9 30.5L673.9 30.5" fill="none" pointer-events="visible" stroke="#54555a" class="zr916-cls-12604"></path>
<path d="M216.5 335L216.5 340" fill="none" pointer-events="visible" stroke="#54555a" class="zr916-cls-12604"></path>
<path d="M370.5 335L370.5 340" fill="none" pointer-events="visible" stroke="#54555a" class="zr916-cls-12604"></path>
<path d="M524.5 335L524.5 340" fill="none" pointer-events="visible" stroke="#54555a" class="zr916-cls-12604"></path>
<path d="M679.5 335L679.5 340" fill="none" pointer-events="visible" stroke="#54555a" class="zr916-cls-12604"></path>
<path d="M833.5 335L833.5 340" fill="none" pointer-events="visible" stroke="#54555a" class="zr916-cls-12604"></path>
<path d="M987.5 335L987.5 340" fill="none" pointer-events="visible" stroke="#54555a" class="zr916-cls-12604"></path>
<path d="M1141.5 335L1141.5 340" fill="none" pointer-events="visible" stroke="#54555a" class="zr916-cls-12604"></path>
<path d="M1296.5 335L1296.5 340" fill="none" pointer-events="visible" stroke="#54555a" class="zr916-cls-12604"></path>
<text dominant-baseline="central" text-anchor="end" style="font-size:12px;font-family:sans-serif;" transform="translate(208 640)" fill="#54555a">-60</text>
<text dominant-baseline="central" text-anchor="end" style="font-size:12px;font-family:sans-serif;" transform="translate(208 538.3333)" fill="#54555a">-40</text>
<text dominant-baseline="central" text-anchor="end" style="font-size:12px;font-family:sans-serif;" transform="translate(208 436.6667)" fill="#54555a">-20</text>
<text dominant-baseline="central" text-anchor="end" style="font-size:12px;font-family:sans-serif;" transform="translate(208 335)" fill="#54555a">0</text>
<text dominant-baseline="central" text-anchor="end" style="font-size:12px;font-family:sans-serif;" transform="translate(208 233.3333)" fill="#54555a">20</text>
<text dominant-baseline="central" text-anchor="end" style="font-size:12px;font-family:sans-serif;" transform="translate(208 131.6667)" fill="#54555a">40</text>
<text dominant-baseline="central" text-anchor="end" style="font-size:12px;font-family:sans-serif;" transform="translate(208 30)" fill="#54555a">60</text>
<text dominant-baseline="central" text-anchor="middle" style="font-size:12px;font-family:sans-serif;" y="6" transform="translate(216 648)" fill="#54555a">-60</text>
<text dominant-baseline="central" text-anchor="middle" style="font-size:12px;font-family:sans-serif;" y="6" transform="translate(370.2857 648)" fill="#54555a">-40</text>
<text dominant-baseline="central" text-anchor="middle" style="font-size:12px;font-family:sans-serif;" y="6" transform="translate(524.5714 648)" fill="#54555a">-20</text>
<text dominant-baseline="central" text-anchor="middle" style="font-size:12px;font-family:sans-serif;" y="6" transform="translate(678.8571 648)" fill="#54555a">0</text>
<text dominant-baseline="central" text-anchor="middle" style="font-size:12px;font-family:sans-serif;" y="6" transform="translate(833.1429 648)" fill="#54555a">20</text>
<text dominant-baseline="central" text-anchor="middle" style="font-size:12px;font-family:sans-serif;" y="6" transform="translate(987.4286 648)" fill="#54555a">40</text>
<text dominant-baseline="central" text-anchor="middle" style="font-size:12px;font-family:sans-serif;" y="6" transform="translate(1141.7143 648)" fill="#54555a">60</text>
<text dominant-baseline="central" text-anchor="middle" style="font-size:12px;font-family:sans-serif;" y="6" transform="translate(1296 648)" fill="#54555a">80</text>
<path d="M1 0A1 1 0 1 1 1 -0.1A1 1 0 0 1 1 0" transform="matrix(5,0,0,5,359.5857,225.4057)" fill="#5470c6" fill-opacity="0.8" ecmeta_series_index="1" ecmeta_data_index="0" ecmeta_ssr_type="chart" class="zr916-cls-12605"></path>
<path d="M1 0A1 1 0 1 1 1 -0.1A1 1 0 0 1 1 0" transform="matrix(5,0,0,5,473.7069,115.7943)" fill="#5470c6" fill-opacity="0.8" ecmeta_series_index="1" ecmeta_data_index="1" ecmeta_ssr_type="chart" class="zr916-cls-12605"></path>
<path d="M1 0A1 1 0 1 1 1 -0.1A1 1 0 0 1 1 0" transform="matrix(5,0,0,5,500.7003,177.1922)" fill="#5470c6" fill-opacity="0.8" ecmeta_series_index="1" ecmeta_data_index="2" ecmeta_ssr_type="chart" class="zr916-cls-12605"></path>
<path d="M1 0A1 1 0 1 1 1 -0.1A1 1 0 0 1 1 0" transform="matrix(5,0,0,5,528.6263,248.2527)" fill="#5470c6" fill-opacity="0.8" ecmeta_series_index="1" ecmeta_data_index="3" ecmeta_ssr_type="chart" class="zr916-cls-12605"></path>
<path d="M1 0A1 1 0 1 1 1 -0.1A1 1 0 0 1 1 0" transform="matrix(5,0,0,5,643.0952,137.0645)" fill="#5470c6" fill-opacity="0.8" ecmeta_series_index="1" ecmeta_data_index="4" ecmeta_ssr_type="chart" class="zr916-cls-12605"></path>
<path d="M1 0A1 1 0 1 1 1 -0.1A1 1 0 0 1 1 0" transform="matrix(5,0,0,5,389.7139,218.8463)" fill="#91cc75" fill-opacity="0.8" ecmeta_series_index="2" ecmeta_data_index="0" ecmeta_ssr_type="chart" class="zr916-cls-12606"></path>
<path d="M1 0A1 1 0 1 1 1 -0.1A1 1 0 0 1 1 0" transform="matrix(5,0,0,5,299.8622,261.3667)" fill="#91cc75" fill-opacity="0.8" ecmeta_series_index="2" ecmeta_data_index="1" ecmeta_ssr_type="chart" class="zr916-cls-12606"></path>
<path d="M1 0A1 1 0 1 1 1 -0.1A1 1 0 0 1 1 0" transform="matrix(5,0,0,5,327.4849,280.4546)" fill="#91cc75" fill-opacity="0.8" ecmeta_series_index="2" ecmeta_data_index="2" ecmeta_ssr_type="chart" class="zr916-cls-12606"></path>
<path d="M1 0A1 1 0 1 1 1 -0.1A1 1 0 0 1 1 0" transform="matrix(5,0,0,5,340.8482,275.7471)" fill="#91cc75" fill-opacity="0.8" ecmeta_series_index="2" ecmeta_data_index="3" ecmeta_ssr_type="chart" class="zr916-cls-12606"></path>
<path d="M1 0A1 1 0 1 1 1 -0.1A1 1 0 0 1 1 0" transform="matrix(5,0,0,5,353.2745,359.4312)" fill="#91cc75" fill-opacity="0.8" ecmeta_series_index="2" ecmeta_data_index="4" ecmeta_ssr_type="chart" class="zr916-cls-12606"></path>
<path d="M1 0A1 1 0 1 1 1 -0.1A1 1 0 0 1 1 0" transform="matrix(5,0,0,5,643.0866,342.5209)" fill="#fac858" fill-opacity="0.8" ecmeta_series_index="3" ecmeta_data_index="0" ecmeta_ssr_type="chart" class="zr916-cls-12607"></path>
<path d="M1 0A1 1 0 1 1 1 -0.1A1 1 0 0 1 1 0" transform="matrix(5,0,0,5,778.4922,378.8075)" fill="#fac858" fill-opacity="0.8" ecmeta_series_index="3" ecmeta_data_index="1" ecmeta_ssr_type="chart" class="zr916-cls-12607"></path>
<path d="M1 0A1 1 0 1 1 1 -0.1A1 1 0 0 1 1 0" transform="matrix(5,0,0,5,620.534,525.4948)" fill="#fac858" fill-opacity="0.8" ecmeta_series_index="3" ecmeta_data_index="2" ecmeta_ssr_type="chart" class="zr916-cls-12607"></path>
<path d="M1 0A1 1 0 1 1 1 -0.1A1 1 0 0 1 1 0" transform="matrix(5,0,0,5,565.1054,440.375)" fill="#fac858" fill-opacity="0.8" ecmeta_series_index="3" ecmeta_data_index="3" ecmeta_ssr_type="chart" class="zr916-cls-12607"></path>
<path d="M1 0A1 1 0 1 1 1 -0.1A1 1 0 0 1 1 0" transform="matrix(5,0,0,5,600.949,522.0679)" fill="#fac858" fill-opacity="0.8" ecmeta_series_index="3" ecmeta_data_index="4" ecmeta_ssr_type="chart" class="zr916-cls-12607"></path>
<path d="M1 0A1 1 0 1 1 1 -0.1A1 1 0 0 1 1 0" transform="matrix(5,0,0,5,623.4698,563.4948)" fill="#ee6666" fill-opacity="0.8" ecmeta_series_index="4" ecmeta_data_index="0" ecmeta_ssr_type="chart" class="zr916-cls-12608"></path>
<path d="M1 0A1 1 0 1 1 1 -0.1A1 1 0 0 1 1 0" transform="matrix(5,0,0,5,624.089,484.6059)" fill="#ee6666" fill-opacity="0.8" ecmeta_series_index="4" ecmeta_data_index="1" ecmeta_ssr_type="chart" class="zr916-cls-12608"></path>
<path d="M1 0A1 1 0 1 1 1 -0.1A1 1 0 0 1 1 0" transform="matrix(5,0,0,5,791.5399,404.2961)" fill="#ee6666" fill-opacity="0.8" ecmeta_series_index="4" ecmeta_data_index="2" ecmeta_ssr_type="chart" class="zr916-cls-12608"></path>
<path d="M1 0A1 1 0 1 1 1 -0.1A1 1 0 0 1 1 0" transform="matrix(5,0,0,5,684.4356,479.9414)" fill="#ee6666" fill-opacity="0.8" ecmeta_series_index="4" ecmeta_data_index="3" ecmeta_ssr_type="chart" class="zr916-cls-12608"></path>
<path d="M1 0A1 1 0 1 1 1 -0.1A1 1 0 0 1 1 0" transform="matrix(5,0,0,5,622.0009,560.9405)" fill="#ee6666" fill-opacity="0.8" ecmeta_series_index="4" ecmeta_data_index="4" ecmeta_ssr_type="chart" class="zr916-cls-12608"></path>
<path d="M1 0A1 1 0 1 1 1 -0.1A1 1 0 0 1 1 0" transform="matrix(5,0,0,5,769.3358,420.9199)" fill="#73c0de" fill-opacity="0.8" ecmeta_series_index="5" ecmeta_data_index="0" ecmeta_ssr_type="chart" class="zr916-cls-12609"></path>
<path d="M1 0A1 1 0 1 1 1 -0.1A1 1 0 0 1 1 0" transform="matrix(5,0,0,5,760.9573,311.0467)" fill="#73c0de" fill-opacity="0.8" ecmeta_series_index="5" ecmeta_data_index="1" ecmeta_ssr_type="chart" class="zr916-cls-12609"></path>
<path d="M1 0A1 1 0 1 1 1 -0.1A1 1 0 0 1 1 0" transform="matrix(5,0,0,5,828.036,366.8106)" fill="#73c0de" fill-opacity="0.8" ecmeta_series_index="5" ecmeta_data_index="2" ecmeta_ssr_type="chart" class="zr916-cls-12609"></path>
<path d="M1 0A1 1 0 1 1 1 -0.1A1 1 0 0 1 1 0" transform="matrix(5,0,0,5,836.8966,334.1606)" fill="#73c0de" fill-opacity="0.8" ecmeta_series_index="5" ecmeta_data_index="3" ecmeta_ssr_type="chart" class="zr916-cls-12609"></path>
<path d="M1 0A1 1 0 1 1 1 -0.1A1 1 0 0 1 1 0" transform="matrix(5,0,0,5,1019.5603,238.4033)" fill="#73c0de" fill-opacity="0.8" ecmeta_series_index="5" ecmeta_data_index="4" ecmeta_ssr_type="chart" class="zr916-cls-12609"></path>
<path d="M1 0A1 1 0 1 1 1 -0.1A1 1 0 0 1 1 0" transform="matrix(5,0,0,5,1156.5834,300.2698)" fill="#3ba272" fill-opacity="0.8" ecmeta_series_index="6" ecmeta_data_index="0" ecmeta_ssr_type="chart" class="zr916-cls-12610"></path>
<path d="M1 0A1 1 0 1 1 1 -0.1A1 1 0 0 1 1 0" transform="matrix(5,0,0,5,1010.6337,286.4065)" fill="#3ba272" fill-opacity="0.8" ecmeta_series_index="6" ecmeta_data_index="1" ecmeta_ssr_type="chart" class="zr916-cls-12610"></path>
<path d="M1 0A1 1 0 1 1 1 -0.1A1 1 0 0 1 1 0" transform="matrix(5,0,0,5,989.5577,456.061)" fill="#3ba272" fill-opacity="0.8" ecmeta_series_index="6" ecmeta_data_index="2" ecmeta_ssr_type="chart" class="zr916-cls-12610"></path>
<path d="M1 0A1 1 0 1 1 1 -0.1A1 1 0 0 1 1 0" transform="matrix(5,0,0,5,1126.0994,197.1345)" fill="#3ba272" fill-opacity="0.8" ecmeta_series_index="6" ecmeta_data_index="3" ecmeta_ssr_type="chart" class="zr916-cls-12610"></path>
<path d="M1 0A1 1 0 1 1 1 -0.1A1 1 0 0 1 1 0" transform="matrix(5,0,0,5,1097.4534,136.6867)" fill="#3ba272" fill-opacity="0.8" ecmeta_series_index="6" ecmeta_data_index="4" ecmeta_ssr_type="chart" class="zr916-cls-12610"></path>
<path d="M-5 -5l339 0l0 24l-339 0Z" transform="translate(555.5 5)" fill="rgb(0,0,0)" fill-opacity="0" stroke="#b7b9be" stroke-width="0" class="zr916-cls-12604"></path>
<path d="M19.5 7A7 7 0 1 1 19.5 6.3A7 7 0 0 1 19.5 7" transform="translate(550 5)" fill="#5470c6" fill-opacity="0.8" ecmeta_series_index="1" ecmeta_data_index="0" ecmeta_ssr_type="legend" ecmeta_silent="true" class="zr916-cls-12604"></path>
<text dominant-baseline="central" text-anchor="start" style="font-size:12px;font-family:sans-serif;" x="30" y="7" transform="translate(550 5)" fill="#54555a">D14</text>
<path d="M5.5 0l47.5 0l0 14l-47.5 0Z" transform="translate(550 5)" fill="none" pointer-events="visible" ecmeta_series_index="1" ecmeta_data_index="0" ecmeta_ssr_type="legend" class="zr916-cls-12611"></path>
<path d="M19.5 7A7 7 0 1 1 19.5 6.3A7 7 0 0 1 19.5 7" transform="translate(605.5 5)" fill="#91cc75" fill-opacity="0.8" ecmeta_series_index="2" ecmeta_data_index="1" ecmeta_ssr_type="legend" ecmeta_silent="true" class="zr916-cls-12604"></path>
<text dominant-baseline="central" text-anchor="start" style="font-size:12px;font-family:sans-serif;" x="30" y="7" transform="translate(605.5 5)" fill="#54555a">D21</text>
<path d="M5.5 0l47.5 0l0 14l-47.5 0Z" transform="translate(605.5 5)" fill="none" pointer-events="visible" ecmeta_series_index="2" ecmeta_data_index="1" ecmeta_ssr_type="legend" class="zr916-cls-12611"></path>
<path d="M19.5 7A7 7 0 1 1 19.5 6.3A7 7 0 0 1 19.5 7" transform="translate(661 5)" fill="#fac858" fill-opacity="0.8" ecmeta_series_index="3" ecmeta_data_index="2" ecmeta_ssr_type="legend" ecmeta_silent="true" class="zr916-cls-12604"></path>
<text dominant-baseline="central" text-anchor="start" style="font-size:12px;font-family:sans-serif;" x="30" y="7" transform="translate(661 5)" fill="#54555a">M03</text>
<path d="M5.5 0l48.5 0l0 14l-48.5 0Z" transform="translate(661 5)" fill="none" pointer-events="visible" ecmeta_series_index="3" ecmeta_data_index="2" ecmeta_ssr_type="legend" class="zr916-cls-12611"></path>
<path d="M19.5 7A7 7 0 1 1 19.5 6.3A7 7 0 0 1 19.5 7" transform="translate(717.5 5)" fill="#ee6666" fill-opacity="0.8" ecmeta_series_index="4" ecmeta_data_index="3" ecmeta_ssr_type="legend" ecmeta_silent="true" class="zr916-cls-12604"></path>
<text dominant-baseline="central" text-anchor="start" style="font-size:12px;font-family:sans-serif;" x="30" y="7" transform="translate(717.5 5)" fill="#54555a">M06</text>
<path d="M5.5 0l48.5 0l0 14l-48.5 0Z" transform="translate(717.5 5)" fill="none" pointer-events="visible" ecmeta_series_index="4" ecmeta_data_index="3" ecmeta_ssr_type="legend" class="zr916-cls-12611"></path>
<path d="M19.5 7A7 7 0 1 1 19.5 6.3A7 7 0 0 1 19.5 7" transform="translate(774 5)" fill="#73c0de" fill-opacity="0.8" ecmeta_series_index="5" ecmeta_data_index="4" ecmeta_ssr_type="legend" ecmeta_silent="true" class="zr916-cls-12604"></path>
<text dominant-baseline="central" text-anchor="start" style="font-size:12px;font-family:sans-serif;" x="30" y="7" transform="translate(774 5)" fill="#54555a">M12</text>
<path d="M5.5 0l48.5 0l0 14l-48.5 0Z" transform="translate(774 5)" fill="none" pointer-events="visible" ecmeta_series_index="5" ecmeta_data_index="4" ecmeta_ssr_type="legend" class="zr916-cls-12611"></path>
<path d="M19.5 7A7 7 0 1 1 19.5 6.3A7 7 0 0 1 19.5 7" transform="translate(830.5 5)" fill="#3ba272" fill-opacity="0.8" ecmeta_series_index="6" ecmeta_data_index="5" ecmeta_ssr_type="legend" ecmeta_silent="true" class="zr916-cls-12604"></path>
<text dominant-baseline="central" text-anchor="start" style="font-size:12px;font-family:sans-serif;" x="30" y="7" transform="translate(830.5 5)" fill="#54555a">M18</text>
<path d="M5.5 0l48.5 0l0 14l-48.5 0Z" transform="translate(830.5 5)" fill="none" pointer-events="visible" ecmeta_series_index="6" ecmeta_data_index="5" ecmeta_ssr_type="legend" class="zr916-cls-12611"></path>
<style ><![CDATA[
.zr916-cls-12604:hover {
pointer-events:none;
}
.zr916-cls-12605:hover {
cursor:pointer;
fill:rgba(92,123,217,1);
}
.zr916-cls-12606:hover {
cursor:pointer;
fill:rgba(159,224,128,1);
}
.zr916-cls-12607:hover {
cursor:pointer;
fill:rgba(255,220,96,1);
}
.zr916-cls-12608:hover {
cursor:pointer;
fill:rgba(255,112,112,1);
}
.zr916-cls-12609:hover {
cursor:pointer;
fill:rgba(126,211,244,1);
}
.zr916-cls-12610:hover {
cursor:pointer;
fill:rgba(64,178,125,1);
}
.zr916-cls-12611:hover {
cursor:pointer;
fill:rgba(0,0,0,0);
}

]]>

</style>
</svg>