<svg width="1440" height="720" xmlns="http://www.w3.org/2000/svg" xmlns:xlink="http://www.w3.org/1999/xlink" version="1.1" baseProfile="full" viewBox="0 0 1440 720">
<rect width="1440" height="720" x="0" y="0" fill="none"></rect>
<path d="M216 640.5L1296 640.5" fill="none" pointer-events="visible" stroke="#dbdee4" class="zr899-cls-12489"></path>
<path d="M216 572.5L1296 572.5" fill="none" pointer-events="visible" stroke="#dbdee4" class="zr899-cls-12489"></path>
<path d="M216 504.5L1296 504.5" fill="none" pointer-events="visible" stroke="#dbdee4" class="zr899-cls-12489"></path>
<path d="M216 436.5L1296 436.5" fill="none" pointer-events="visible" stroke="#dbdee4" class="zr899-cls-12489"></path>
<path d="M216 369.5L1296 369.5" fill="none" pointer-events="visible" stroke="#dbdee4" class="zr899-cls-12489"></path>
<path d="M216 301.5L1296 301.5" fill="none" pointer-events="visible" stroke="#dbdee4" class="zr899-cls-12489"></path>
<path d="M216 233.5L1296 233.5" fill="none" pointer-events="visible" stroke="#dbdee4" class="zr899-cls-12489"></path>
<path d="M216 165.5L1296 165.5" fill="none" pointer-events="visible" stroke="#dbdee4" class="zr899-cls-12489"></path>
<path d="M216 98.5L1296 98.5" fill="none" pointer-events="visible" stroke="#dbdee4" class="zr899-cls-12489"></path>
<path d="M216 30.5L1296 30.5" fill="none" pointer-events="visible" stroke="#dbdee4" class="zr899-cls-12489"></path>
<path d="M216.5 30L216.5 640" fill="none" pointer-events="visible" stroke="#dbdee4" class="zr899-cls-12489"></path>
<path d="M396.5 30L396.5 640" fill="none" pointer-events="visible" stroke="#dbdee4" class="zr899-cls-12489"></path>
<path d="M576.5 30L576.5 640" fill="none" pointer-events="visible" stroke="#dbdee4" class="zr899-cls-12489"></path>
<path d="M756.5 30L756.5 640" fill="none" pointer-events="visible" stroke="#dbdee4" class="zr899-cls-12489"></path>
<path d="M936.5 30L936.5 640" fill="none" pointer-events="visible" stroke="#dbdee4" class="zr899-cls-12489"></path>
<path d="M1116.5 30L1116.5 640" fill="none" pointer-events="visible" stroke="#dbdee4" class="zr899-cls-12489"></path>
<path d="M1296.5 30L1296.5 640" fill="none" pointer-events="visible" stroke="#dbdee4" class="zr899-cls-12489"></path>
<text dominant-baseline="central" text-anchor="middle" style="font-size:12px;font-family:sans-serif;" xml:space="preserve" x="1" y="-21" transform="matrix(0,-1,1,0,194.1,335)" fill="#54555a">PC2 (8.7%)</text>
<path d="M756.5 640L756.5 30" fill="none" pointer-events="visible" stroke="#54555a" stroke-linecap="round" class="zr899-cls-12489"></path>
<text dominant-baseline="central" text-anchor="middle" style="font-size:12px;font-family:sans-serif;" xml:space="preserve" x="1" y="16" transform="translate(756 655)" fill="#54555a">PC1 (35.6%)</text>
<path d="M216 233.5L1296 233.5" fill="none" pointer-events="visible" stroke="#54555a" stroke-linecap="round" class="zr899-cls-12489"></path>
<path d="M756 640.5L751 640.5" fill="none" pointer-events="visible" stroke="#54555a" class="zr899-cls-12489"></path>
<path d="M756 572.5L751 572.5" fill="none" pointer-events="visible" stroke="#54555a" class="zr899-cls-12489"></path>
<path d="M756 504.5L751 504.5" fill="none" pointer-events="visible" stroke="#54555a" class="zr899-cls-12489"></path>
<path d="M756 436.5L751 436.5" fill="none" pointer-events="visible" stroke="#54555a" class="zr899-cls-12489"></path>
<path d="M756 369.5L751 369.5" fill="none" pointer-events="visible" stroke="#54555a" class="zr899-cls-12489"></path>
<path d="M756 301.5L751 301.5" fill="none" pointer-events="visible" stroke="#54555a" class="zr899-cls-12489"></path>
<path d="M756 233.5L751 233.5" fill="none" pointer-events="visible" stroke="#54555a" class="zr899-cls-12489"></path>
<path d="M756 165.5L751 165.5" fill="none" pointer-events="visible" stroke="#54555a" class="zr899-cls-12489"></path>
<path d="M756 98.5L751 98.5" fill="none" pointer-events="visible" stroke="#54555a" class="zr899-cls-12489"></path>
<path d="M756 30.5L751 30.5" fill="none" pointer-events="visible" stroke="#54555a" class="zr899-cls-12489"></path>
<path d="M216.5 233.3L216.5 238.3" fill="none" pointer-events="visible" stroke="#54555a" class="zr899-cls-12489"></path>
<path d="M396.5 233.3L396.5 238.3" fill="none" pointer-events="visible" stroke="#54555a" class="zr899-cls-12489"></path>
<path d="M576.5 233.3L576.5 238.3" fill="none" pointer-events="visible" stroke="#54555a" class="zr899-cls-12489"></path>
<path d="M756.5 233.3L756.5 238.3" fill="none" pointer-events="visible" stroke="#54555a" class="zr899-cls-12489"></path>
<path d="M936.5 233.3L936.5 238.3" fill="none" pointer-events="visible" stroke="#54555a" class="zr899-cls-12489"></path>
<path d="M1116.5 233.3L1116.5 238.3" fill="none" pointer-events="visible" stroke="#54555a" class="zr899-cls-12489"></path>
<path d="M1296.5 233.3L1296.5 238.3" fill="none" pointer-events="visible" stroke="#54555a" class="zr899-cls-12489"></path>
<text dominant-baseline="central" text-anchor="end" style="font-size:12px;font-family:sans-serif;" transform="translate(208 640)" fill="#54555a">-60</text>
<text dominant-baseline="central" text-anchor="end" style="font-size:12px;font-family:sans-serif;" transform="translate(208 572.2222)" fill="#54555a">-50</text>
<text dominant-baseline="central" text-anchor="end" style="font-size:12px;font-family:sans-serif;" transform="translate(208 504.4444)" fill="#54555a">-40</text>
<text dominant-baseline="central" text-anchor="end" style="font-size:12px;font-family:sans-serif;" transform="translate(208 436.6667)" fill="#54555a">-30</text>
<text dominant-baseline="central" text-anchor="end" style="font-size:12px;font-family:sans-serif;" transform="translate(208 368.8889)" fill="#54555a">-20</text>
<text dominant-baseline="central" text-anchor="end" style="font-size:12px;font-family:sans-serif;" transform="translate(208 301.1111)" fill="#54555a">-10</text>
<text dominant-baseline="central" text-anchor="end" style="font-size:12px;font-family:sans-serif;" transform="translate(208 233.3333)" fill="#54555a">0</text>
<text dominant-baseline="central" text-anchor="end" style="font-size:12px;font-family:sans-serif;" transform="translate(208 165.5556)" fill="#54555a">10</text>
<text dominant-baseline="central" text-anchor="end" style="font-size:12px;font-family:sans-serif;" transform="translate(208 97.7778)" fill="#54555a">20</text>
<text dominant-baseline="central" text-anchor="end" style="font-size:12px;font-family:sans-serif;" transform="translate(208 30)" fill="#54555a">30</text>
<text dominant-baseline="central" text-anchor="middle" style="font-size:12px;font-family:sans-serif;" y="6" transform="translate(216 648)" fill="#54555a">-60</text>
<text dominant-baseline="central" text-anchor="middle" style="font-size:12px;font-family:sans-serif;" y="6" transform="translate(396 648)" fill="#54555a">-40</text>
<text dominant-baseline="central" text-anchor="middle" style="font-size:12px;font-family:sans-serif;" y="6" transform="translate(576 648)" fill="#54555a">-20</text>
<text dominant-baseline="central" text-anchor="middle" style="font-size:12px;font-family:sans-serif;" y="6" transform="translate(756 648)" fill="#54555a">0</text>
<text dominant-baseline="central" text-anchor="middle" style="font-size:12px;font-family:sans-serif;" y="6" transform="translate(936 648)" fill="#54555a">20</text>
<text dominant-baseline="central" text-anchor="middle" style="font-size:12px;font-family:sans-serif;" y="6" transform="translate(1116 648)" fill="#54555a">40</text>
<text dominant-baseline="central" text-anchor="middle" style="font-size:12px;font-family:sans-serif;" y="6" transform="translate(1296 648)" fill="#54555a">60</text>
<path d="M1 0A1 1 0 1 1 1 -0.1A1 1 0 0 1 1 0" transform="matrix(5,0,0,5,1155.3072,582.8205)" fill="rgb(0,128,0)" fill-opacity="0" stroke="grey" stroke-width="0.2" stroke-opacity="0.8" ecmeta_series_index="0" ecmeta_data_index="0" ecmeta_ssr_type="chart" class="zr899-cls-12490"></path>
<path d="M1 0A1 1 0 1 1 1 -0.1A1 1 0 0 1 1 0" transform="matrix(5,0,0,5,1147.6625,548.6094)" fill="rgb(0,128,0)" fill-opacity="0" stroke="grey" stroke-width="0.2" stroke-opacity="0.8" ecmeta_series_index="0" ecmeta_data_index="1" ecmeta_ssr_type="chart" class="zr899-cls-12490"></path>
<path d="M1 0A1 1 0 1 1 1 -0.1A1 1 0 0 1 1 0" transform="matrix(5,0,0,5,375.0412,184.1437)" fill="#5470c6" fill-opacity="0.8" ecmeta_series_index="1" ecmeta_data_index="0" ecmeta_ssr_type="chart" class="zr899-cls-12491"></path>
<path d="M1 0A1 1 0 1 1 1 -0.1A1 1 0 0 1 1 0" transform="matrix(5,0,0,5,334.3946,218.8881)" fill="#5470c6" fill-opacity="0.8" ecmeta_series_index="1" ecmeta_data_index="1" ecmeta_ssr_type="chart" class="zr899-cls-12491"></path>
<path d="M1 0A1 1 0 1 1 1 -0.1A1 1 0 0 1 1 0" transform="matrix(5,0,0,5,321.3634,193.1465)" fill="#5470c6" fill-opacity="0.8" ecmeta_series_index="1" ecmeta_data_index="2" ecmeta_ssr_type="chart" class="zr899-cls-12491"></path>
<path d="M1 0A1 1 0 1 1 1 -0.1A1 1 0 0 1 1 0" transform="matrix(5,0,0,5,345.2892,354.3245)" fill="#5470c6" fill-opacity="0.8" ecmeta_series_index="1" ecmeta_data_index="3" ecmeta_ssr_type="chart" class="zr899-cls-12491"></path>
<path d="M1 0A1 1 0 1 1 1 -0.1A1 1 0 0 1 1 0" transform="matrix(5,0,0,5,329.1091,353.5665)" fill="#5470c6" fill-opacity="0.8" ecmeta_series_index="1" ecmeta_data_index="4" ecmeta_ssr_type="chart" class="zr899-cls-12491"></path>
<path d="M1 0A1 1 0 1 1 1 -0.1A1 1 0 0 1 1 0" transform="matrix(5,0,0,5,293.2457,189.6677)" fill="#91cc75" fill-opacity="0.8" ecmeta_series_index="2" ecmeta_data_index="0" ecmeta_ssr_type="chart" class="zr899-cls-12492"></path>
<path d="M1 0A1 1 0 1 1 1 -0.1A1 1 0 0 1 1 0" transform="matrix(5,0,0,5,301.5716,207.2624)" fill="#91cc75" fill-opacity="0.8" ecmeta_series_index="2" ecmeta_data_index="1" ecmeta_ssr_type="chart" class="zr899-cls-12492"></path>
<path d="M1 0A1 1 0 1 1 1 -0.1A1 1 0 0 1 1 0" transform="matrix(5,0,0,5,303.6298,331.2233)" fill="#91cc75" fill-opacity="0.8" ecmeta_series_index="2" ecmeta_data_index="2" ecmeta_ssr_type="chart" class="zr899-cls-12492"></path>
<path d="M1 0A1 1 0 1 1 1 -0.1A1 1 0 0 1 1 0" transform="matrix(5,0,0,5,309.0274,317.9413)" fill="#91cc75" fill-opacity="0.8" ecmeta_series_index="2" ecmeta_data_index="3" ecmeta_ssr_type="chart" class="zr899-cls-12492"></path>
<path d="M1 0A1 1 0 1 1 1 -0.1A1 1 0 0 1 1 0" transform="matrix(5,0,0,5,270.1589,272.7742)" fill="#91cc75" fill-opacity="0.8" ecmeta_series_index="2" ecmeta_data_index="4" ecmeta_ssr_type="chart" class="zr899-cls-12492"></path>
<path d="M1 0A1 1 0 1 1 1 -0.1A1 1 0 0 1 1 0" transform="matrix(5,0,0,5,804.9873,105.2276)" fill="#fac858" fill-opacity="0.8" ecmeta_series_index="3" ecmeta_data_index="0" ecmeta_ssr_type="chart" class="zr899-cls-12493"></path>
<path d="M1 0A1 1 0 1 1 1 -0.1A1 1 0 0 1 1 0" transform="matrix(5,0,0,5,836.0633,112.1985)" fill="#fac858" fill-opacity="0.8" ecmeta_series_index="3" ecmeta_data_index="1" ecmeta_ssr_type="chart" class="zr899-cls-12493"></path>
<path d="M1 0A1 1 0 1 1 1 -0.1A1 1 0 0 1 1 0" transform="matrix(5,0,0,5,838.1918,83.9264)" fill="#fac858" fill-opacity="0.8" ecmeta_series_index="3" ecmeta_data_index="2" ecmeta_ssr_type="chart" class="zr899-cls-12493"></path>
<path d="M1 0A1 1 0 1 1 1 -0.1A1 1 0 0 1 1 0" transform="matrix(5,0,0,5,834.3302,243.6328)" fill="#fac858" fill-opacity="0.8" ecmeta_series_index="3" ecmeta_data_index="3" ecmeta_ssr_type="chart" class="zr899-cls-12493"></path>
<path d="M1 0A1 1 0 1 1 1 -0.1A1 1 0 0 1 1 0" transform="matrix(5,0,0,5,806.3329,237.4055)" fill="#fac858" fill-opacity="0.8" ecmeta_series_index="3" ecmeta_data_index="4" ecmeta_ssr_type="chart" class="zr899-cls-12493"></path>
<path d="M1 0A1 1 0 1 1 1 -0.1A1 1 0 0 1 1 0" transform="matrix(5,0,0,5,904.3924,74.8348)" fill="#ee6666" fill-opacity="0.8" ecmeta_series_index="4" ecmeta_data_index="0" ecmeta_ssr_type="chart" class="zr899-cls-12494"></path>
<path d="M1 0A1 1 0 1 1 1 -0.1A1 1 0 0 1 1 0" transform="matrix(5,0,0,5,932.6247,75.6663)" fill="#ee6666" fill-opacity="0.8" ecmeta_series_index="4" ecmeta_data_index="1" ecmeta_ssr_type="chart" class="zr899-cls-12494"></path>
<path d="M1 0A1 1 0 1 1 1 -0.1A1 1 0 0 1 1 0" transform="matrix(5,0,0,5,861.031,240.033)" fill="#ee6666" fill-opacity="0.8" ecmeta_series_index="4" ecmeta_data_index="2" ecmeta_ssr_type="chart" class="zr899-cls-12494"></path>
<path d="M1 0A1 1 0 1 1 1 -0.1A1 1 0 0 1 1 0" transform="matrix(5,0,0,5,869.3317,230.3917)" fill="#ee6666" fill-opacity="0.8" ecmeta_series_index="4" ecmeta_data_index="3" ecmeta_ssr_type="chart" class="zr899-cls-12494"></path>
<path d="M1 0A1 1 0 1 1 1 -0.1A1 1 0 0 1 1 0" transform="matrix(5,0,0,5,914.5047,240.7714)" fill="#ee6666" fill-opacity="0.8" ecmeta_series_index="4" ecmeta_data_index="4" ecmeta_ssr_type="chart" class="zr899-cls-12494"></path>
<path d="M1 0A1 1 0 1 1 1 -0.1A1 1 0 0 1 1 0" transform="matrix(5,0,0,5,1023.6775,146.5607)" fill="#73c0de" fill-opacity="0.8" ecmeta_series_index="5" ecmeta_data_index="0" ecmeta_ssr_type="chart" class="zr899-cls-12495"></path>
<path d="M1 0A1 1 0 1 1 1 -0.1A1 1 0 0 1 1 0" transform="matrix(5,0,0,5,965.2529,109.6406)" fill="#73c0de" fill-opacity="0.8" ecmeta_series_index="5" ecmeta_data_index="1" ecmeta_ssr_type="chart" class="zr899-cls-12495"></path>
<path d="M1 0A1 1 0 1 1 1 -0.1A1 1 0 0 1 1 0" transform="matrix(5,0,0,5,1036.2919,75.4302)" fill="#73c0de" fill-opacity="0.8" ecmeta_series_index="5" ecmeta_data_index="2" ecmeta_ssr_type="chart" class="zr899-cls-12495"></path>
<path d="M1 0A1 1 0 1 1 1 -0.1A1 1 0 0 1 1 0" transform="matrix(5,0,0,5,1055.844,275.6334)" fill="#73c0de" fill-opacity="0.8" ecmeta_series_index="5" ecmeta_data_index="3" ecmeta_ssr_type="chart" class="zr899-cls-12495"></path>
<path d="M1 0A1 1 0 1 1 1 -0.1A1 1 0 0 1 1 0" transform="matrix(5,0,0,5,1114.7816,287.5867)" fill="#73c0de" fill-opacity="0.8" ecmeta_series_index="5" ecmeta_data_index="4" ecmeta_ssr_type="chart" class="zr899-cls-12495"></path>
<path d="M1 0A1 1 0 1 1 1 -0.1A1 1 0 0 1 1 0" transform="matrix(5,0,0,5,1162.7958,213.7312)" fill="#3ba272" fill-opacity="0.8" ecmeta_series_index="6" ecmeta_data_index="0" ecmeta_ssr_type="chart" class="zr899-cls-12496"></path>
<path d="M1 0A1 1 0 1 1 1 -0.1A1 1 0 0 1 1 0" transform="matrix(5,0,0,5,1105.2096,175.2636)" fill="#3ba272" fill-opacity="0.8" ecmeta_series_index="6" ecmeta_data_index="1" ecmeta_ssr_type="chart" class="zr899-cls-12496"></path>
<path d="M1 0A1 1 0 1 1 1 -0.1A1 1 0 0 1 1 0" transform="matrix(5,0,0,5,1128.5562,317.6975)" fill="#3ba272" fill-opacity="0.8" ecmeta_series_index="6" ecmeta_data_index="2" ecmeta_ssr_type="chart" class="zr899-cls-12496"></path>
<path d="M1 0A1 1 0 1 1 1 -0.1A1 1 0 0 1 1 0" transform="matrix(5,0,0,5,1155.3072,582.8205)" fill="#3ba272" fill-opacity="0.8" ecmeta_series_index="6" ecmeta_data_index="3" ecmeta_ssr_type="chart" class="zr899-cls-12496"></path>
<path d="M1 0A1 1 0 1 1 1 -0.1A1 1 0 0 1 1 0" transform="matrix(5,0,0,5,1147.6625,548.6094)" fill="#3ba272" fill-opacity="0.8" ecmeta_series_index="6" ecmeta_data_index="4" ecmeta_ssr_type="chart" class="zr899-cls-12496"></path>
<text dominant-baseline="central" text-anchor="start" style="font-size:14px;font-family:sans-serif;font-weight:bold;" transform="translate(1165.8072 582.8205)" fill="black" fill-opacity="0.8">20778</text>
<text dominant-baseline="central" text-anchor="start" style="font-size:14px;font-family:sans-serif;font-weight:bold;" transform="translate(1158.1625 548.6094)" fill="black" fill-opacity="0.8">20779</text>
<path d="M-5 -5l339 0l0 24l-339 0Z" transform="translate(555.5 5)" fill="rgb(0,0,0)" fill-opacity="0" stroke="#b7b9be" stroke-width="0" class="zr899-cls-12489"></path>
<path d="M19.5 7A7 7 0 1 1 19.5 6.3A7 7 0 0 1 19.5 7" transform="translate(550 5)" fill="#5470c6" fill-opacity="0.8" ecmeta_series_index="1" ecmeta_data_index="0" ecmeta_ssr_type="legend" ecmeta_silent="true" class="zr899-cls-12489"></path>
<text dominant-baseline="central" text-anchor="start" style="font-size:12px;font-family:sans-serif;" x="30" y="7" transform="translate(550 5)" fill="#54555a">D14</text>
<path d="M5.5 0l47.5 0l0 14l-47.5 0Z" transform="translate(550 5)" fill="none" pointer-events="visible" ecmeta_series_index="1" ecmeta_data_index="0" ecmeta_ssr_type="legend" class="zr899-cls-12497"></path>
<path d="M19.5 7A7 7 0 1 1 19.5 6.3A7 7 0 0 1 19.5 7" transform="translate(605.5 5)" fill="#91cc75" fill-opacity="0.8" ecmeta_series_index="2" ecmeta_data_index="1" ecmeta_ssr_type="legend" ecmeta_silent="true" class="zr899-cls-12489"></path>
<text dominant-baseline="central" text-anchor="start" style="font-size:12px;font-family:sans-serif;" x="30" y="7" transform="translate(605.5 5)" fill="#54555a">D21</text>
<path d="M5.5 0l47.5 0l0 14l-47.5 0Z" transform="translate(605.5 5)" fill="none" pointer-events="visible" ecmeta_series_index="2" ecmeta_data_index="1" ecmeta_ssr_type="legend" class="zr899-cls-12497"></path>
<path d="M19.5 7A7 7 0 1 1 19.5 6.3A7 7 0 0 1 19.5 7" transform="translate(661 5)" fill="#fac858" fill-opacity="0.8" ecmeta_series_index="3" ecmeta_data_index="2" ecmeta_ssr_type="legend" ecmeta_silent="true" class="zr899-cls-12489"></path>
<text dominant-baseline="central" text-anchor="start" style="font-size:12px;font-family:sans-serif;" x="30" y="7" transform="translate(661 5)" fill="#54555a">M03</text>
<path d="M5.5 0l48.5 0l0 14l-48.5 0Z" transform="translate(661 5)" fill="none" pointer-events="visible" ecmeta_series_index="3" ecmeta_data_index="2" ecmeta_ssr_type="legend" class="zr899-cls-12497"></path>
<path d="M19.5 7A7 7 0 1 1 19.5 6.3A7 7 0 0 1 19.5 7" transform="translate(717.5 5)" fill="#ee6666" fill-opacity="0.8" ecmeta_series_index="4" ecmeta_data_index="3" ecmeta_ssr_type="legend" ecmeta_silent="true" class="zr899-cls-12489"></path>
<text dominant-baseline="central" text-anchor="start" style="font-size:12px;font-family:sans-serif;" x="30" y="7" transform="translate(717.5 5)" fill="#54555a">M06</text>
<path d="M5.5 0l48.5 0l0 14l-48.5 0Z" transform="translate(717.5 5)" fill="none" pointer-events="visible" ecmeta_series_index="4" ecmeta_data_index="3" ecmeta_ssr_type="legend" class="zr899-cls-12497"></path>
<path d="M19.5 7A7 7 0 1 1 19.5 6.3A7 7 0 0 1 19.5 7" transform="translate(774 5)" fill="#73c0de" fill-opacity="0.8" ecmeta_series_index="5" ecmeta_data_index="4" ecmeta_ssr_type="legend" ecmeta_silent="true" class="zr899-cls-12489"></path>
<text dominant-baseline="central" text-anchor="start" style="font-size:12px;font-family:sans-serif;" x="30" y="7" transform="translate(774 5)" fill="#54555a">M12</text>
<path d="M5.5 0l48.5 0l0 14l-48.5 0Z" transform="translate(774 5)" fill="none" pointer-events="visible" ecmeta_series_index="5" ecmeta_data_index="4" ecmeta_ssr_type="legend" class="zr899-cls-12497"></path>
<path d="M19.5 7A7 7 0 1 1 19.5 6.3A7 7 0 0 1 19.5 7" transform="translate(830.5 5)" fill="#3ba272" fill-opacity="0.8" ecmeta_series_index="6" ecmeta_data_index="5" ecmeta_ssr_type="legend" ecmeta_silent="true" class="zr899-cls-12489"></path>
<text dominant-baseline="central" text-anchor="start" style="font-size:12px;font-family:sans-serif;" x="30" y="7" transform="translate(830.5 5)" fill="#54555a">M18</text>
<path d="M5.5 0l48.5 0l0 14l-48.5 0Z" transform="translate(830.5 5)" fill="none" pointer-events="visible" ecmeta_series_index="6" ecmeta_data_index="5" ecmeta_ssr_type="legend" class="zr899-cls-12497"></path>
<style ><![CDATA[
.zr899-cls-12489:hover {
pointer-events:none;
}
.zr899-cls-12490:hover {
cursor:pointer;
fill:rgba(0,140,0,0);
}
.zr899-cls-12491:hover {
cursor:pointer;
fill:rgba(92,123,217,1);
}
.zr899-cls-12492:hover {
cursor:pointer;
fill:rgba(159,224,128,1);
}
.zr899-cls-12493:hover {
cursor:pointer;
fill:rgba(255,220,96,1);
}
.zr899-cls-12494:hover {
cursor:pointer;
fill:rgba(255,112,112,1);
}
.zr899-cls-12495:hover {
cursor:pointer;
fill:rgba(126,211,244,1);
}
.zr899-cls-12496:hover {
cursor:pointer;
fill:rgba(64,178,125,1);
}
.zr899-cls-12497:hover {
cursor:pointer;
fill:rgba(0,0,0,0);
}

]]>

</style>
</svg>